The Rolling Stones Some Girls tour is widely believed to be one of the bands' greatest concerts, largely because it was in many ways back to basics both in musical and staging terms--a return to classic Stones numbers mixed with blues numbers and Chuck Berry covers, as well as including a large number of songs from the newly released Some Girls LP. 

    Tracks

    Let It Rock
    All Down The Line
    Honky Tonk Women
    Star Star
    When The Whip Comes Down
    Beast of Burden
    Miss You
    Imagination
    Shattered
    Respectable
    Far Away Eyes
    Love in Vain
    Tumbling Dice
    Happy
    Sweet Little Sixteen
    Brown Sugar
    Jumpin' Jack Flash

Format                                   : MPEG-4
Format profile                           : Base Media
Codec ID                                 : isom
File size                                : 3.64 GiB
Duration                                 : 1h 25mn
Overall bit rate                         : 6 118 Kbps
Writing application                      : Lavf52.31.0

Video
ID                                       : 1
Format                                   : AVC
Format/Info                              : Advanced Video Codec
Format profile                           : High@L4.0
Format settings, CABAC                   : Yes
Format settings, ReFrames                : 4 frames
Codec ID                                 : avc1
Codec ID/Info                            : Advanced Video Coding
Duration                                 : 1h 25mn
Bit rate                                 : 5 948 Kbps
Width                                    : 1 920 pixels
Height                                   : 1 080 pixels
Display aspect ratio                     : 16:9
Frame rate mode                          : Constant
Frame rate                               : 29.970 fps
Color space                              : YUV
Chroma subsampling                       : 4:2:0
Bit depth                                : 8 bits
Scan type                                : Progressive
Bits/(Pixel*Frame)                       : 0.096
Stream size                              : 3.54 GiB (97%)

Audio
ID                                       : 2
Format                                   : AAC
Format/Info                              : Advanced Audio Codec
Format profile                           : LC
Codec ID                                 : 40
Duration                                 : 1h 25mn
Bit rate mode                            : Constant
Bit rate                                 : 165 Kbps
Nominal bit rate                         : 320 Kbps
Channel(s)                               : 2 channels
Channel positions                        : Front: L R
Sampling rate                            : 48.0 KHz
Compression mode                         : Lossy
Stream size                              : 101 MiB (3%)
